<svg width="154" height="62" viewBox="0 0 154 62" fill="none" xmlns="http://www.w3.org/2000/svg">
<path fill-rule="evenodd" clip-rule="evenodd" d="M45.6814 0.5L34.979 41.0636C33.3191 47.3519 27.7277 51.4702 21.612 51.4702C20.3015 51.4702 18.9474 51.2931 17.5932 50.8502L13.7491 49.6546C6.62875 47.4404 2.47886 39.9122 4.40092 32.6055L5.2309 29.4171L1.43047 28.4428L0.600494 31.587C-0.578948 36.1039 -0.0110681 40.8865 2.21677 45.0048C4.48828 49.1232 8.15766 52.1345 12.5696 53.5072L16.4138 54.7029C18.1174 55.2343 19.821 55.5 21.5683 55.5C23.8399 55.5 26.0677 55.0572 28.1208 54.2158C29.1692 51.5588 31.7028 49.6989 34.6733 49.6546C36.5516 47.5733 37.9932 45.0048 38.7358 42.1707L48.3461 5.72544L56.8642 8.07246L58 3.86554L45.6814 0.5ZM110.708 55.1483C109.668 55.3681 108.542 55.5 107.242 55.5C105.639 55.5 104.166 55.2802 102.78 54.8405C101.394 54.4009 100.181 53.7414 99.1841 52.7742C98.1444 51.8509 97.3213 50.6639 96.7581 49.213C96.1949 47.8062 95.8917 46.0915 95.8917 44.1571V17.2506H90V13.6015H95.8917V0.5H99.7906V13.6455H114V17.2946H99.7906V43.7174C99.7906 46.6631 100.527 48.7294 102.043 49.9165C103.56 51.1035 105.509 51.6751 107.892 51.6751C108.888 51.6751 109.841 51.5871 110.751 51.3673C111.661 51.1475 112.7 50.7958 113.87 50.3121V54.0052C112.787 54.5328 111.747 54.8845 110.708 55.1483ZM58.4891 47.4786C57.0527 46.0759 55.8339 44.4103 54.8763 42.4378C53.9187 40.4653 53.3528 38.2299 53.1352 35.6876H86.9129C86.9275 35.5707 86.942 35.4684 86.9549 35.3775V35.3774C86.9807 35.1956 87 35.0593 87 34.9424V34.1973V34.0219C87 30.9536 86.5647 28.1045 85.6942 25.5183C84.8236 22.9322 83.5613 20.6529 81.9507 18.7243C80.3402 16.7956 78.3814 15.2615 76.0745 14.1656C73.7675 13.0698 71.1993 12.5 68.3265 12.5C65.5842 12.5 63.016 13.0698 60.6655 14.2095C58.3585 15.3491 56.3127 16.8833 54.5716 18.8119C52.8305 20.7406 51.4811 23.0199 50.48 25.606C49.4788 28.1922 49 30.9974 49 33.9342V34.1096C49 37.3094 49.5223 40.2462 50.6105 42.8761C51.6552 45.5061 53.1352 47.7416 54.9633 49.6264C56.7915 51.5112 58.9244 52.9577 61.362 53.9659C63.7995 54.974 66.3677 55.5 69.0229 55.5C72.8969 55.5 76.1615 54.7987 78.8167 53.3084C81.4719 51.818 83.8224 49.9332 85.9118 47.6978L83.2131 45.287C81.5155 47.1279 79.5567 48.6621 77.3368 49.8894C75.1168 51.1167 72.4181 51.7304 69.197 51.7304C67.1947 51.7304 65.236 51.3359 63.4078 50.6346C61.5796 49.9332 59.9255 48.8812 58.4891 47.4786ZM81.646 26.0882C82.3425 28.0168 82.7343 29.9893 82.9084 32.0933H53.1352C53.3093 29.8578 53.7881 27.7538 54.6586 25.7813C55.5292 23.8089 56.6174 22.0994 57.9233 20.6967C59.2291 19.2941 60.7961 18.1544 62.5372 17.3654C64.3219 16.5326 66.1936 16.1381 68.2394 16.1381C70.5899 16.1381 72.6793 16.5765 74.4204 17.4531C76.1615 18.3298 77.6415 19.5133 78.8603 21.0036C80.0355 22.4939 80.9931 24.2034 81.646 26.0882ZM136.242 55.5C137.542 55.5 138.668 55.3681 139.708 55.1483C140.747 54.8845 141.787 54.5328 142.87 54.0052V50.3121C141.7 50.7958 140.661 51.1475 139.751 51.3673C138.841 51.5871 137.888 51.6751 136.892 51.6751C134.509 51.6751 132.56 51.1035 131.043 49.9165C129.527 48.7294 128.791 46.6631 128.791 43.7174V17.2946H143V13.6455H128.791V0.5H124.892V13.6015H119V17.2506H124.892V44.1571C124.892 46.0915 125.195 47.8062 125.758 49.213C126.321 50.6639 127.144 51.8509 128.184 52.7742C129.181 53.7414 130.394 54.4009 131.78 54.8405C133.166 55.2802 134.639 55.5 136.242 55.5ZM148 55.4562V14.5H152V55.5H148V55.4562ZM154 4.5C154 6.70914 152.209 8.5 150 8.5C147.791 8.5 146 6.70914 146 4.5C146 2.29086 147.791 0.5 150 0.5C152.209 0.5 154 2.29086 154 4.5ZM35 51.5C32.2523 51.5 30 53.7523 30 56.5C30 59.2477 32.2523 61.5 35 61.5C37.7477 61.5 40 59.2477 40 56.5C40 53.7523 37.7477 51.5 35 51.5ZM35 58.6622C33.7838 58.6622 32.7928 57.6712 32.7928 56.455C32.7928 55.2387 33.7838 54.2477 35 54.2477C36.2162 54.2477 37.2072 55.2387 37.2072 56.455C37.2072 57.6712 36.2162 58.6622 35 58.6622Z" fill="white"/>
</svg>
